<svg xmlns="http://www.w3.org/2000/svg" viewBox="0 0 600 600"><defs><style>.cls-1{fill:#fff;}</style></defs><g id="Calque_7" data-name="Calque 7"><path class="cls-1" d="M194.75,455.53c13.43-25.77,16.48-51.94,6.65-79.14-.28-.75-2.62-1.6-3.35-1.2q-11,6-21.7,12.43a4,4,0,0,0-1.28,3.5,63.68,63.68,0,0,1-5.19,47.21,3.4,3.4,0,0,1-3.18.86c-6.77-3.72-13.45-7.63-20.06-11.61a2.64,2.64,0,0,1-.72-2.48c11.44-24.63-3.68-51.08-30.62-53.57A3.53,3.53,0,0,1,113,369c-.06-7.82.08-15.63.35-23.45,0-.59,1.5-1.68,2.25-1.64a64.53,64.53,0,0,1,42.92,18.69,4.81,4.81,0,0,0,4.44.57c7.27-3.89,14.41-8.06,21.48-12.31.61-.37,1-2.48.59-3C166.77,327,144,315.17,116,314a4.27,4.27,0,0,1-2.91-3c-.26-7.29-.25-14.6,0-21.89a4.19,4.19,0,0,1,2.88-2.85c27.5-1.74,50.91-11.77,68.59-33.49.55-.67.17-3.19-.53-3.62-7.2-4.39-14.52-8.56-21.9-12.64a3.18,3.18,0,0,0-3,.47c-12,11.84-26.27,18.53-43.13,19.44-1,.05-2.87-1.69-2.9-2.65-.26-7.55-.23-15.12-.1-22.68a3,3,0,0,1,1.91-2.23c26.92-2.35,42.26-28.44,31.22-53.06a3.72,3.72,0,0,1,1.11-3.41c6.52-4,13.16-7.75,19.85-11.43a2.78,2.78,0,0,1,2.63.7c7.93,15,9.59,30.75,5.5,47.2a4.44,4.44,0,0,0,1.48,3.83q10.44,6.42,21.2,12.27c.75.41,3.14-.38,3.4-1.12,9.64-26.3,7.38-51.8-5.39-76.58a3.75,3.75,0,0,1,1-3.53q9.5-5.91,19.33-11.27a3.72,3.72,0,0,1,3.52.91c14.7,22.45,34.89,36.92,61.17,42.78,3.85.86,5.83.52,5.52-4.3-.47-7.52-.21-15.1-.48-22.64a3.84,3.84,0,0,0-2.22-2.74C268.08,141.64,255,133.13,246.12,119c-.57-.9.14-3.67,1.08-4.27,6.07-3.87,12.33-7.45,18.65-10.89a3.77,3.77,0,0,1,3.56.73c15.88,21.76,46.11,21.55,61.71-.47a2.74,2.74,0,0,1,2.54-.73c6.81,3.83,13.57,7.76,20.23,11.85a3.16,3.16,0,0,1,.66,3c-8.85,14.66-22.05,23.46-38.25,28.22a3.61,3.61,0,0,0-2.23,2.46q-.24,12.92,0,25.85c0,.62,1.6,1.85,2.26,1.73,26.85-4.92,48-18.68,62.86-41.6,2-3.09,3.27-3.77,6.55-1.58,5.68,3.79,11.82,6.9,17.63,10.51a3.47,3.47,0,0,1,.81,3.3c-12.37,24.75-14.6,50.23-5.48,76.48.27.79,2.78,1.72,3.55,1.3q10.75-5.85,21.18-12.29a4.62,4.62,0,0,0,1.46-4c-3.87-17-2.08-33.21,6.42-48.84l23.9,13.74c-4.78,9.78-6.6,19.87-2.73,30.27,5.59,15,16.8,23.05,32.46,25.34a3.19,3.19,0,0,1,2,2.33q.24,11.34,0,22.69a3.19,3.19,0,0,1-2.34,2c-16.92-.61-31.2-7.31-43.38-18.91a4.08,4.08,0,0,0-3.75-.43c-7.4,4-14.7,8.25-21.94,12.57a3,3,0,0,0-.46,2.86c18.25,21,41,32.78,69,33.95a4.1,4.1,0,0,1,2.83,2.78c.24,7.29.22,14.6,0,21.89a3.75,3.75,0,0,1-2.46,2.67c-27.78,1.93-51.2,12.61-69.18,34.24a3.07,3.07,0,0,0,.41,3c7.3,4.39,14.67,8.67,22.14,12.75a4,4,0,0,0,3.68-.68,63.25,63.25,0,0,1,43-19,3.39,3.39,0,0,1,2.4,2.3c.19,7.56.18,15.13,0,22.69a3.2,3.2,0,0,1-2.11,2.25c-26.69,2.73-41.85,29.38-30.54,53.7a2.84,2.84,0,0,1-.68,2.69c-7.24,4.3-14.57,8.43-23.38,13.46-2.42-8.76-5.88-17-6.69-25.42-.79-8.27,1.16-16.8,1.8-25.23a3.08,3.08,0,0,0-1.06-2.45c-7.45-4.46-15-8.85-22.57-13-.58-.32-2.77.82-3.07,1.68-8.89,25.48-7.36,50.38,4.83,74.46,1.79,3.53,1.56,5.07-2.07,6.9-6,3-11.68,6.8-17.61,10a3.51,3.51,0,0,1-3.29-.91q-22.69-35.61-64.15-43.32c-.66-.12-2.3,1.25-2.31,2q-.25,12.66,0,25.33a3.75,3.75,0,0,0,2.22,2.66c15.72,4.7,28.4,13.52,37.76,27.08,1.7,2.45,1.49,3.63-1.24,5.09-6.35,3.39-12.47,7.21-18.8,10.66a3.39,3.39,0,0,1-3.19-.69c-16.28-21.89-45-21.81-61.5.18a3.3,3.3,0,0,1-3.1.57q-10-5.55-19.83-11.5a3.25,3.25,0,0,1-.71-3.1,64.88,64.88,0,0,1,38.13-28.11,4.47,4.47,0,0,0,2.49-3.34c.22-8.17.19-16.36,0-24.53,0-.82-1.87-2.42-2.61-2.28-27.45,5.14-48.56,19.72-63.83,43a4.05,4.05,0,0,1-3.84.86C208.83,463.71,201.81,459.57,194.75,455.53Zm49.56-147.24c0,7-.11,14.07.11,21.1a5.41,5.41,0,0,0,2.2,3.9q18.48,10.9,37.22,21.39c.44.25,2.46-.92,2.46-1.44q.21-21.5,0-43a4.28,4.28,0,0,0-1.83-3.08q-18.57-11-37.35-21.68c-.47-.27-2.69,1.08-2.71,1.71C244.24,294.22,244.31,301.25,244.31,308.29Zm15-48.33c1.72,1.08,2.86,1.86,4.06,2.54,8.59,5,17.65,9.28,25.67,15s14.48,6.43,22.83.46c9.35-6.7,19.82-11.82,29.85-17.65-.34-.51-.44-.81-.64-.92Q321.41,248,301.66,236.63a3.52,3.52,0,0,0-2.82.37q-9.54,5.35-19,10.88C273.16,251.79,266.48,255.75,259.33,260Zm54.92,95.13a4.16,4.16,0,0,0,.94-.13c8.78-5,17.16-10.94,26.43-14.72,11.84-4.84,16.12-12.47,14-24.77-.77-4.52-.13-9.29-.13-13.94,0-5.48,0-11,0-16.62a8,8,0,0,0-1.4.36q-19.29,11.09-38.56,22.23a2.67,2.67,0,0,0-1.25,1.79C314.24,324.47,314.25,339.65,314.25,355.09Zm-26.5,37.44c-1.55-2.52-2.05-4.44-3.27-5.15-17.27-10.09-34.57-20.13-52.08-29.81-1.51-.83-4.57.86-6.74,1.78-.37.15-.15,2.48.29,3.61a119.72,119.72,0,0,1,8.65,47.49,18.17,18.17,0,0,0,.2,2.2,10.15,10.15,0,0,0,2.09-.64,128.07,128.07,0,0,1,45.83-16.23C284.3,395.55,285.68,393.91,287.75,392.53Zm-117-91.66a8.73,8.73,0,0,0,.93.56,123.12,123.12,0,0,1,36.85,31.43c.78,1,2.86,2.37,3.17,2.11,1.91-1.53,4.92-3.46,5-5.3.36-19.25,0-38.51.36-57.77.08-4.43-2.44-5.77-5.4-6.7-.89-.28-2.73,2-3.91,3.27-2.49,2.72-4.52,5.95-7.3,8.29C190.67,285,180.68,292.86,170.78,300.87ZM365,187.19a8.36,8.36,0,0,0-1.19.51,120.94,120.94,0,0,1-47.15,17c-1,.14-2.62,1.31-2.54,1.77.37,2.27.53,5.62,2,6.51q25.62,15.35,51.73,29.86c1.45.8,4.47-.86,6.55-1.83.45-.21.24-2.44-.08-3.62-2.35-8.5-5.41-16.86-7-25.49C365.77,203.86,365.72,195.57,365,187.19Zm-130-.38a7.9,7.9,0,0,0-.32,1.47,119.84,119.84,0,0,1-9.24,50.3c-.3.7-.08,2.27.39,2.52,1.81,1,4.5,2.81,5.65,2.17q26.88-15,53.33-30.81c1.28-.76,1.39-4,1.38-6.11,0-.65-2.15-1.47-3.42-1.88a35.22,35.22,0,0,0-4.39-.7A115.73,115.73,0,0,1,235,186.81ZM365.57,412.05a10.38,10.38,0,0,0,.13-1.78c-.87-16.69,3.19-32.49,8.66-48,.34-1,.35-2.92-.12-3.15-1.91-.93-4.72-2.56-6-1.83q-26.65,14.91-52.85,30.6c-1.24.74-1.1,4-1.22,6.16,0,.45,1.57,1.24,2.51,1.46,5.53,1.28,11.31,1.85,16.61,3.75C344.1,403.1,354.69,407.68,365.57,412.05Zm64.51-112.32a12.51,12.51,0,0,0-1.59-1.12c-14.95-7.66-27.05-18.69-37.49-31.7-.61-.77-2.06-1.85-2.47-1.62-1.8,1-4.77,2.43-4.8,3.75q-.63,30.91-.35,61.83c0,1.45,3.16,3.05,5.09,4.17.44.25,2-1.08,2.84-1.91,5.79-5.85,11.16-12.19,17.38-17.53C415.35,309.87,422.8,305.06,430.08,299.73Z"/></g></svg>